# xmcd CD database file
#
# Track frame offsets:
#	150
#	25354
#	54259
#	67411
#	85080
#	94897
#	120700
#	138323
#	164346
#	178550
#
# Disc length: 2688 seconds
#
# Revision: 0
# Processed by: cddbd v1.5.2PL0 Copyright (c) Steve Scherf et al.
# Submitted via: CDex 1.51
#
DISCID=870a7e0a
DTITLE=Theo D - Dutch Delta Blues
DYEAR=2010
DGENRE=Blues
TTITLE0=Various Artist - Blues For Dennis
TTITLE1=Various Artist - going to clarksdale
TTITLE2=Various Artist - the blues knocked on my door
TTITLE3=Various Artist - Howling
TTITLE4=Various Artist - serve your country
TTITLE5=Various Artist - sold to the devil
TTITLE6=Various Artist - Clarksdale boogie
TTITLE7=Various Artist - Leave my money alone
TTITLE8=Various Artist - down without you
TTITLE9=Various Artist - theo's boogie
EXTD=YEAR: 2010
EXTT0=
EXTT1=
EXTT2=
EXTT3=
EXTT4=
EXTT5=
EXTT6=
EXTT7=
EXTT8=
EXTT9=
PLAYORDER=
